<mxfile host="app.diagrams.net" modified="2023-10-09T13:54:29.795Z" agent="Mozilla/5.0 (Windows NT 10.0; Win64; x64; rv:109.0) Gecko/20100101 Firefox/118.0" etag="X4R4O68ReckiC3iLYFhe" version="22.0.4" type="github">
  <diagram name="Page-1" id="929967ad-93f9-6ef4-fab6-5d389245f69c">
    <mxGraphModel dx="1588" dy="760" grid="1" gridSize="10" guides="1" tooltips="1" connect="1" arrows="1" fold="1" page="1" pageScale="1.5" pageWidth="1169" pageHeight="826" background="none" math="0" shadow="0">
      <root>
        <mxCell id="0" style=";html=1;" />
        <mxCell id="1" style=";html=1;" parent="0" />
        <mxCell id="mAYkpqZz3SUtqJ27Bvcc-3" value="&amp;lt;&amp;lt;view&amp;gt;&amp;gt;&#xa;Name" style="shape=folder;html=1;tabWidth=80;tabHeight=40;tabPosition=left;align=left;verticalAlign=top;spacingLeft=10;whiteSpace=wrap;" vertex="1" parent="1">
          <mxGeometry x="570" y="170" width="1220" height="830" as="geometry" />
        </mxCell>
        <mxCell id="mAYkpqZz3SUtqJ27Bvcc-4" value="ActorName" style="shape=umlActor;html=1;verticalLabelPosition=bottom;verticalAlign=top;align=center;" vertex="1" parent="1">
          <mxGeometry x="610" y="490" width="90" height="185" as="geometry" />
        </mxCell>
        <mxCell id="mAYkpqZz3SUtqJ27Bvcc-17" value="part1" style="align=right;html=1;verticalAlign=bottom;endArrow=none;startArrow=diamondThin;startSize=14;startFill=1;edgeStyle=none;rounded=0;" edge="1" parent="1" source="mAYkpqZz3SUtqJ27Bvcc-4">
          <mxGeometry x="1" relative="1" as="geometry">
            <mxPoint x="1170" y="580" as="sourcePoint" />
            <mxPoint x="930" y="580" as="targetPoint" />
          </mxGeometry>
        </mxCell>
        <mxCell id="mAYkpqZz3SUtqJ27Bvcc-18" value="1" style="resizable=0;html=1;align=left;verticalAlign=top;labelBackgroundColor=none;fontSize=10" connectable="0" vertex="1" parent="mAYkpqZz3SUtqJ27Bvcc-17">
          <mxGeometry x="-1" relative="1" as="geometry" />
        </mxCell>
        <mxCell id="mAYkpqZz3SUtqJ27Bvcc-19" value="0..*" style="resizable=0;html=1;align=right;verticalAlign=top;labelBackgroundColor=none;fontSize=10" connectable="0" vertex="1" parent="mAYkpqZz3SUtqJ27Bvcc-17">
          <mxGeometry x="1" relative="1" as="geometry" />
        </mxCell>
        <mxCell id="mAYkpqZz3SUtqJ27Bvcc-20" value="Comment text" style="shape=note;size=15;align=left;spacingLeft=10;html=1;whiteSpace=wrap;" vertex="1" parent="1">
          <mxGeometry x="920" y="520" width="300" height="110" as="geometry" />
        </mxCell>
      </root>
    </mxGraphModel>
  </diagram>
</mxfile>
